<?xml version="1.0" standalone="no"?>
<!DOCTYPE svg PUBLIC "-//W3C//DTD SVG 20010904//EN"
 "http://www.w3.org/TR/2001/REC-SVG-20010904/DTD/svg10.dtd">
<svg version="1.0" xmlns="http://www.w3.org/2000/svg"
 width="126.000000pt" height="39.000000pt" viewBox="0 0 126.000000 39.000000"
 preserveAspectRatio="xMidYMid meet">

<g transform="translate(0.000000,39.000000) scale(0.100000,-0.100000)"
fill="#000000" stroke="none">
<path d="M563 379 c-66 -19 -123 -102 -123 -179 0 -34 32 -100 61 -127 75 -68
212 -53 271 29 21 30 23 46 26 161 l4 127 -104 -1 c-57 0 -118 -5 -135 -10z
m-3 -139 c0 -11 -6 -20 -14 -20 -18 0 -29 16 -21 30 11 18 35 11 35 -10z m165
0 c0 -8 -8 -16 -17 -18 -13 -2 -18 3 -18 18 0 15 5 20 18 18 9 -2 17 -10 17
-18z m15 -69 c0 -97 -178 -121 -225 -31 -28 55 -19 60 110 60 l115 0 0 -29z"/>
<path d="M0 238 c0 -96 14 -142 49 -168 35 -24 107 -27 137 -5 19 12 24 12 40
0 26 -20 104 -19 133 1 36 25 51 75 51 164 l0 80 -40 0 -40 0 0 -76 c0 -82
-11 -114 -38 -114 -34 0 -42 22 -42 107 l0 83 -39 0 -39 0 -3 -85 c-4 -84 -13
-105 -44 -105 -31 0 -40 21 -44 105 l-3 85 -39 0 -39 0 0 -72z"/>
<path d="M850 214 c0 -96 0 -96 34 -130 28 -28 41 -34 78 -34 24 0 54 7 66 16
20 14 24 14 44 0 38 -27 103 -21 140 13 33 29 33 31 36 130 l4 101 -41 0 -40
0 -3 -86 c-2 -70 -6 -89 -20 -98 -13 -8 -23 -8 -35 0 -15 9 -19 28 -21 98 l-3
86 -39 0 -40 0 0 -76 c0 -82 -11 -114 -38 -114 -34 0 -42 22 -42 107 l0 83
-40 0 -40 0 0 -96z"/>
</g>
</svg>
